 <svg xmlns="http://www.w3.org/2000/svg" viewBox="0 0 248.5 52.9">
    <path d="M40.4,37.1c.6,4.5,4.6,7.7,10.9,7.7,3.3,0,7.7-1.2,9.7-3.4l5.8,5.7C63,51.1,56.7,53,51.1,53c-12.5,0-20-7.7-20-19.4s7.6-19,19.4-19,19.8,7.5,18.4,22.5Zm19.8-7.5c-.6-4.7-4.2-7.1-9.4-7.1s-8.9,2.4-10.2,7.1Z" transform="translate(-0.4 -0.2)"/>
    <path d="M84.8.5V52.1h-9V.5Z" transform="translate(-0.4 -0.2)"/>
    <path d="M101.6.5V52.1H92.7V.5Z" transform="translate(-0.4 -0.2)"/>
    <path d="M119.3,5.4c0,7-10.6,7-10.6,0S119.3-1.6,119.3,5.4Zm-9.8,10.1V52.1h9V15.5Z" transform="translate(-0.4 -0.2)"/>
    <path d="M162.9,33.9c0,10.5-7.2,19-19,19S125,44.4,125,33.9s7.2-19,18.8-19S162.9,23.5,162.9,33.9Zm-28.9,0c0,5.5,3.3,10.7,9.9,10.7s9.9-5.2,9.9-10.7-3.9-10.8-9.9-10.8S134,28.4,134,33.9Z" transform="translate(-0.4 -0.2)"/>
    <polygon points="230.9 46.2 224.6 39.9 235.9 28.6 224.6 17.3 230.9 11 248.5 28.6 230.9 46.2"/>
    <polygon points="17.6 46.2 0 28.6 17.6 11 23.9 17.3 12.6 28.6 23.9 39.9 17.6 46.2"/>
    <polygon points="213.8 5.3 195.7 51.9 205.1 51.9 223.2 5.3 213.8 5.3"/>
    <path d="M185.6,43.9c-2.8,0-4.7-1.7-4.7-5.1V23.3H191V15.5H180.9V5.4h-9V15.5h-6.8v7.8h6.8V38.8c0,8.8,4.9,13.3,12.5,13.2H191V43.9Z" transform="translate(-0.4 -0.2)"/>
</svg> 